<svg width="27" height="32" viewBox="0 0 27 32" fill="none" xmlns="http://www.w3.org/2000/svg">
<path d="M0.594737 31.065L14.6332 15.8149L0.606497 0.591982C0.231846 0.828985 0 1.37774 0 2.09605V29.5756C0.00502466 30.2939 0.228486 30.8025 0.594737 31.065Z" fill="white"/>
<path d="M15.1372 15.3917L19.3189 10.8485L2.28989 0.704814C2.00314 0.523823 1.67743 0.428222 1.3457 0.427698L15.1355 15.3898L15.1372 15.3917Z" fill="white"/>
<path d="M15.1367 16.2371L1.30322 31.2649C1.65043 31.2712 1.99243 31.1728 2.29109 30.9805L19.3537 20.8095L15.1367 16.2371Z" fill="white"/>
<path d="M25.4876 14.5262L19.8208 11.1443L15.5249 15.8115L19.8527 20.5078L25.4859 17.135C26.6838 16.4186 26.6837 15.239 25.4876 14.5262Z" fill="white"/>
</svg>
