<svg width="102" height="105" viewBox="0 0 102 105" fill="none" xmlns="http://www.w3.org/2000/svg">
<path d="M87.6142 105H14.7646C6.98245 105 0.674805 98.4741 0.674805 90.4258V15.1011C0.674805 7.05287 6.98245 0.532288 14.7646 0.532288H87.6142C95.3963 0.532288 101.704 7.05287 101.704 15.1011V90.4258C101.704 98.4847 95.3963 105 87.6142 105Z" fill="#1482CC"/>
<path d="M83.6594 105H18.7197L22.153 86.9819C22.6003 85.4765 23.3816 84.0916 24.4388 82.9303C25.4959 81.769 26.8016 80.8614 28.2584 80.275L30.345 79.4393L34.7843 77.6508L41.0653 75.1331L43.3861 74.1962C43.5769 75.3748 44.1808 76.4472 45.0896 77.2215C45.9985 77.9958 47.1532 78.4216 48.3471 78.4226H53.9628C55.1623 78.4236 56.3225 77.9945 57.2328 77.2132C58.143 76.4319 58.743 75.3502 58.9238 74.1643H58.9823L61.2606 75.0798L67.5842 77.6189L72.0235 79.4074L74.1154 80.243C75.5722 80.8294 76.8779 81.737 77.935 82.8983C78.9922 84.0596 79.7735 85.4446 80.2208 86.9499L83.6594 105Z" fill="#6290C4"/>
<path d="M61.2601 75.1117C60.8798 76.7588 59.9508 78.2276 58.6257 79.277C57.3006 80.3265 55.658 80.8942 53.9677 80.8871H48.3467C46.6602 80.8941 45.0211 80.3288 43.6974 79.2837C42.3738 78.2385 41.4438 76.7752 41.0596 75.1331L43.3857 74.1962C43.5743 75.3749 44.1768 76.4478 45.085 77.2223C45.9932 77.9969 47.1477 78.4225 48.3414 78.4226H53.9623C55.1613 78.4214 56.3203 77.9915 57.2301 77.2106C58.1399 76.4297 58.7404 75.3492 58.9233 74.1643H58.9819L61.2601 75.1117Z" fill="#F48E8F"/>
<path d="M58.9877 64.1785V73.4031C58.987 73.6615 58.9674 73.9194 58.9292 74.1749C58.7463 75.3599 58.1457 76.4404 57.2359 77.2213C56.3262 78.0022 55.1671 78.4321 53.9682 78.4333H48.3472C47.1535 78.4331 45.999 78.0075 45.0908 77.2329C44.1826 76.4584 43.5801 75.3856 43.3915 74.2069C43.3485 73.9447 43.3271 73.6795 43.3276 73.4138V64.1891L58.9877 64.1785Z" fill="#F7D3C3"/>
<path d="M34.7841 77.6508V105H30.3447V79.4393L34.7841 77.6508Z" fill="#F06160"/>
<path d="M72.0228 79.4393V105H67.5835V77.6508L72.0228 79.4393Z" fill="#F06160"/>
<path d="M70.0433 41.0824C70.0433 39.8741 70.0433 38.6551 69.9688 37.4468C69.8005 32.5226 67.7266 27.8562 64.1846 24.4313C60.6425 21.0064 55.909 19.0907 50.9819 19.088H50.9074C46.0223 19.0802 41.3227 20.9576 37.7876 24.3291C34.2525 27.7006 32.1546 32.306 31.9311 37.186C31.8726 38.5007 31.8407 39.8049 31.8407 41.0771C29.3229 41.109 27.2896 43.3074 27.2896 46.0168C27.2896 48.7261 29.3549 50.9564 31.8992 50.9564C32.0772 50.9539 32.2549 50.9415 32.4315 50.9191C34.5607 62.0547 42.0128 70.2786 50.918 70.2786C59.8233 70.2786 67.2754 62.06 69.4098 50.9245C69.5864 50.9463 69.7642 50.957 69.9421 50.9564C72.4865 50.9564 74.5518 48.7421 74.5518 46.0168C74.5518 43.2914 72.5451 41.1356 70.0433 41.0824Z" fill="#F7D3C3"/>
<path d="M50.9394 70.55C42.1725 70.55 34.5075 62.6135 32.2399 51.2118H31.8993C29.2112 51.2118 27.0234 48.8751 27.0234 46.006C27.0234 43.2647 29.0409 40.9918 31.5746 40.8109C31.5746 39.6718 31.6118 38.4475 31.665 37.1647C31.873 32.2092 33.9943 27.5274 37.5828 24.1036C41.1714 20.6799 45.9476 18.7809 50.9074 18.8059H50.9819C55.9849 18.7939 60.7952 20.7335 64.3905 24.2125C67.9858 27.6914 70.0825 32.4355 70.235 37.4361C70.2775 38.6072 70.3042 39.7462 70.3095 40.8321C71.5743 40.9778 72.739 41.5909 73.575 42.5511C74.4111 43.5112 74.8582 44.7491 74.8286 46.022C74.8286 48.891 72.6409 51.2278 69.9528 51.2278H69.6441C67.3553 62.6135 59.7115 70.55 50.9394 70.55ZM32.6657 50.6263L32.7137 50.8712C34.8748 62.1451 42.3695 70.0337 50.9394 70.0337C59.5093 70.0337 67.0093 62.1664 69.1704 50.8712L69.2129 50.6263L69.4631 50.6583C69.6255 50.6797 69.7891 50.6903 69.9528 50.6902C72.3481 50.6902 74.2964 48.593 74.2964 46.0167C74.2964 43.4404 72.3854 41.3911 70.038 41.3431H69.7772V41.0823C69.7772 39.9326 69.7772 38.7136 69.7027 37.4521C69.5503 32.5926 67.5097 27.984 64.0142 24.6048C60.5188 21.2256 55.8437 19.342 50.9819 19.3541H50.9074C46.0852 19.3292 41.4412 21.1751 37.9519 24.5036C34.4626 27.8321 32.3998 32.3839 32.1973 37.2019C32.1388 38.5752 32.1069 39.8634 32.1069 41.0823V41.3431H31.846C29.4773 41.3751 27.5557 43.4723 27.5557 46.0167C27.5557 48.561 29.5039 50.6902 31.8993 50.6902C32.0773 50.6892 32.2551 50.6768 32.4315 50.6529L32.6657 50.6263Z" fill="#E4B9A3"/>
<path d="M62.3887 40.2998C61.408 39.6417 60.2536 39.2903 59.0725 39.2903C57.8914 39.2903 56.737 39.6417 55.7563 40.2998L54.8887 39.1022C54.9259 39.0702 58.9767 36.1959 63.2191 39.1022L62.3887 40.2998Z" fill="#89434A"/>
<path d="M46.1113 40.2998C45.1306 39.6417 43.9762 39.2903 42.7951 39.2903C41.614 39.2903 40.4597 39.6417 39.479 40.2998L38.6113 39.1022C38.6486 39.0702 42.6993 36.1959 46.9417 39.1022L46.1113 40.2998Z" fill="#89434A"/>
<path d="M50.1831 56.7158C49.5633 56.749 48.9464 56.6109 48.3999 56.3166C48.0908 56.0905 47.8437 55.7899 47.6818 55.4428C47.5199 55.0957 47.4483 54.7133 47.4738 54.3312C47.4768 53.8839 47.5925 53.4445 47.8102 53.0538C48.0279 52.663 48.3406 52.3334 48.7193 52.0955C49.8531 51.4301 49.8584 51.3663 49.8691 51.0309C49.9436 49.088 49.8691 43.2116 49.8691 43.153C49.8691 43.0945 50.1565 46.5277 50.3641 51.0522C50.3907 51.6484 50.1831 51.8134 48.9695 52.5267C48.6611 52.7194 48.4072 52.9879 48.232 53.3065C48.0569 53.6252 47.9662 53.9834 47.9688 54.3471C47.9433 54.6454 47.9945 54.9453 48.1174 55.2182C48.2404 55.4912 48.4311 55.7282 48.6714 55.9067C49.5816 56.5029 51.8652 55.8748 53.2704 54.8421C53.3648 54.7725 53.4727 54.7233 53.5871 54.6976C53.7016 54.6718 53.8201 54.6702 53.9352 54.6927C54.0503 54.7152 54.1595 54.7615 54.2558 54.8284C54.3521 54.8954 54.4335 54.9816 54.4947 55.0816C53.5578 56.1516 51.6895 56.7158 50.1831 56.7158Z" fill="#E4B9A3"/>
<path d="M61.2815 44.8669C61.2815 45.3544 61.137 45.8308 60.8662 46.2361C60.5954 46.6414 60.2105 46.9573 59.7602 47.1438C59.3098 47.3304 58.8143 47.3792 58.3363 47.2841C57.8582 47.189 57.419 46.9543 57.0743 46.6096C56.7297 46.2649 56.495 45.8258 56.3999 45.3477C56.3048 44.8696 56.3536 44.3741 56.5402 43.9238C56.7267 43.4734 57.0425 43.0885 57.4478 42.8177C57.8531 42.5469 58.3296 42.4024 58.817 42.4024C59.4707 42.4024 60.0975 42.662 60.5597 43.1242C61.0219 43.5864 61.2815 44.2133 61.2815 44.8669Z" fill="white"/>
<path d="M59.9026 44.867C59.9026 45.0775 59.8402 45.2833 59.7232 45.4584C59.6062 45.6334 59.44 45.7699 59.2454 45.8505C59.0509 45.9311 58.8369 45.9521 58.6303 45.9111C58.4238 45.87 58.2341 45.7686 58.0853 45.6197C57.9364 45.4708 57.835 45.2811 57.7939 45.0746C57.7528 44.8681 57.7739 44.6541 57.8545 44.4595C57.935 44.265 58.0715 44.0987 58.2466 43.9818C58.4217 43.8648 58.6275 43.8024 58.838 43.8024C59.1204 43.8024 59.3911 43.9145 59.5908 44.1142C59.7904 44.3138 59.9026 44.5846 59.9026 44.867Z" fill="#89434A"/>
<path d="M45.4992 44.8669C45.5003 45.3559 45.3562 45.8341 45.0852 46.2411C44.8143 46.648 44.4286 46.9654 43.9771 47.153C43.5255 47.3406 43.0285 47.39 42.5489 47.2949C42.0693 47.1997 41.6287 46.9644 41.283 46.6186C40.9372 46.2729 40.7019 45.8324 40.6068 45.3528C40.5116 44.8732 40.561 44.3761 40.7486 43.9246C40.9362 43.4731 41.2536 43.0874 41.6606 42.8164C42.0675 42.5455 42.5458 42.4014 43.0348 42.4024C43.3584 42.4024 43.6788 42.4661 43.9778 42.59C44.2769 42.7139 44.5485 42.8954 44.7774 43.1242C45.0062 43.3531 45.1878 43.6248 45.3116 43.9238C45.4355 44.2228 45.4992 44.5433 45.4992 44.8669Z" fill="white"/>
<path d="M44.0989 44.867C44.0989 45.0775 44.0364 45.2833 43.9195 45.4584C43.8025 45.6334 43.6362 45.7699 43.4417 45.8505C43.2472 45.9311 43.0331 45.9521 42.8266 45.9111C42.6201 45.87 42.4304 45.7686 42.2815 45.6197C42.1326 45.4708 42.0312 45.2811 41.9902 45.0746C41.9491 44.8681 41.9702 44.6541 42.0508 44.4595C42.1314 44.265 42.2678 44.0987 42.4429 43.9818C42.6179 43.8648 42.8238 43.8024 43.0344 43.8024C43.3167 43.8024 43.5875 43.9145 43.7871 44.1142C43.9868 44.3138 44.0989 44.5846 44.0989 44.867Z" fill="#89434A"/>
<path d="M59.2058 58.5628C58.5883 62.3847 55.0699 65.3176 50.8222 65.3176C49.5817 65.3272 48.3536 65.071 47.2206 64.5659C46.0875 64.0609 45.0759 63.3189 44.2537 62.39C43.3251 61.3369 42.7061 60.0472 42.4652 58.6639C42.4628 58.6267 42.4628 58.5894 42.4652 58.5522C48.0144 59.4961 53.6832 59.4961 59.2324 58.5522L59.2058 58.5628Z" fill="white"/>
<path d="M56.8953 60.5749C56.8953 60.6654 50.4759 63.6995 44.7591 60.5749L42.4648 58.664C42.7057 60.0472 43.3247 61.3369 44.2533 62.39L44.7218 61.384C46.6621 62.1721 48.733 62.5891 50.8271 62.6136C52.9217 62.548 54.9876 62.1082 56.9273 61.3148L57.3957 62.3528C58.3211 61.3099 58.9401 60.0314 59.1842 58.6587L56.8953 60.5749Z" fill="#89434A"/>
<path d="M50.8222 65.5518C49.5467 65.5622 48.284 65.2991 47.1188 64.7803C45.9536 64.2616 44.9131 63.4991 44.0674 62.5444C43.1133 61.4574 42.4746 60.1303 42.2204 58.7065C42.2179 58.6658 42.2179 58.6249 42.2204 58.5841L42.1777 58.2488L42.5131 58.3073C48.0325 59.2442 53.6704 59.2442 59.1898 58.3073L59.5305 58.2488L59.4772 58.5895C58.8385 62.5604 55.1124 65.5518 50.8222 65.5518ZM42.7527 58.8556C43.0198 60.1022 43.6005 61.2601 44.44 62.2197C45.2397 63.122 46.2238 63.8423 47.3257 64.3317C48.4277 64.8212 49.6218 65.0684 50.8275 65.0568C54.7398 65.0568 58.1465 62.3953 58.9024 58.8556C53.5557 59.7215 48.1046 59.7215 42.758 58.8556H42.7527Z" fill="#E4B9A3"/>
<path d="M36.1677 29.9254C36.1677 29.9254 45.0091 37.1859 63.0272 31.5223C63.0272 31.5223 63.1975 33.0606 65.2149 37.9737C67.2642 42.9772 66.2795 49.2157 66.6521 47.9116C66.6521 47.9116 78.2455 30.2236 71.9751 26.2527C71.9751 26.2527 73.5346 25.566 74.5247 26.2527C74.5247 26.2527 72.9278 22.665 67.3654 24.9538C67.3654 24.9538 68.9037 17.2409 73.9445 16.022C72.1018 16.0847 70.3316 16.7547 68.909 17.9276C68.909 17.9276 73.1088 13.0411 79.5229 12.4343C79.5229 12.4343 70.2823 8.70829 53.7174 13.6533C54.7499 12.2731 56.1946 11.2571 57.8427 10.7523C57.8427 10.7523 32.7983 13.6533 33.7883 24.4216C33.7883 24.4216 30.8874 22.8939 28.4654 22.9684C28.4654 22.9684 30.3764 23.884 30.9087 25.2573C30.9087 25.2573 28.0875 24.8793 26.48 28.6213C26.48 28.6213 27.7043 27.3971 29.232 27.626C29.232 27.626 26.9378 39.3098 34.0226 47.7839C34.0226 47.7839 32.8781 42.2853 33.8735 38.6231C34.8689 34.961 36.3221 32.3687 36.1677 29.9254Z" fill="#89434A"/>
</svg>
