<svg width="102" height="105" viewBox="0 0 102 105" fill="none" xmlns="http://www.w3.org/2000/svg">
<path d="M86.9394 104.468H14.0898C6.30765 104.468 0 97.9418 0 89.8935V14.5688C0 6.52058 6.30765 0 14.0898 0H86.9394C94.7215 0 101.029 6.52058 101.029 14.5688V89.8935C101.029 97.9418 94.7215 104.468 86.9394 104.468Z" fill="#109BF8"/>
<path d="M71.4177 30.1012C71.1991 28.8999 70.9166 27.7112 70.5713 26.5401C70.5394 26.4177 70.5181 26.3485 70.5181 26.3485C70.2572 25.4809 69.9858 24.6026 69.6132 23.687C64.4074 10.1509 49.4872 11.5721 49.4872 11.5721C49.4872 11.5721 46.3733 10.3584 39.4322 13.6533C33.2097 16.6076 29.3186 22.4681 28.3392 30.0639C27.5301 33.9922 26.4549 42.3066 27.3226 57.0032C28.0073 67.7705 30.9066 78.2807 35.8393 87.8762C35.8393 87.8762 33.1245 81.2491 32.3421 67.0529C32.3421 67.0529 35.2484 84.6558 40.2253 90.6122C45.7718 97.2499 53.7402 99.0703 60.3619 90.6122C65.1526 84.5015 69.6611 67.0529 69.6611 67.0529C68.6657 75.7293 65.6263 87.8762 65.6263 87.8762C65.6263 87.8762 72.9187 74.686 73.6107 57.0032C73.9655 47.9803 73.2291 38.9475 71.4177 30.1012Z" fill="#89434A"/>
<path d="M80.6794 104.468H20.3706C20.3706 104.468 20.9348 89.0312 21.4991 86.4496C21.7287 85.4156 22.1671 84.4393 22.7872 83.5805C23.4451 82.6496 24.2442 81.827 25.1559 81.1427C25.3726 80.9727 25.5982 80.8146 25.8319 80.6689C26.3364 80.3342 26.871 80.0473 27.4288 79.8119L27.5885 79.7427L43.8447 73.6054L50.5143 71.0876L57.1627 73.5948L63.9494 76.1551L73.4508 79.7427L73.6105 79.8119C74.1683 80.0473 74.7029 80.3342 75.2074 80.6689C75.4416 80.8126 75.6652 80.9776 75.8834 81.1427C76.7954 81.8284 77.5961 82.6507 78.2574 83.5805C78.8717 84.442 79.3079 85.4174 79.5402 86.4496C80.1098 89.0525 80.6794 104.468 80.6794 104.468Z" fill="#F7D3C3"/>
<path d="M50.4985 81.9411C49.5513 81.9412 48.6145 81.743 47.7486 81.3591C46.8827 80.9752 46.1068 80.4141 45.471 79.712C44.8351 79.01 44.3533 78.1825 44.0567 77.2829C43.7602 76.3833 43.6554 75.4315 43.7491 74.489L44.9467 62.2835H56.0344L57.2533 74.473C57.3503 75.4174 57.2477 76.3717 56.9522 77.274C56.6567 78.1762 56.1749 79.0063 55.5381 79.7104C54.9012 80.4145 54.1234 80.9769 53.2553 81.3612C52.3871 81.7455 51.4479 81.943 50.4985 81.9411Z" fill="#F7D3C3"/>
<path d="M66.1158 76.9749C66.1158 76.9749 61.8575 82.5107 58.0729 87.3652C54.581 91.8365 51.1158 91.8524 50.5889 91.8311H50.4984C49.9661 91.8311 46.5009 91.8311 43.009 87.3652C39.2191 82.5107 34.9661 76.9749 34.9661 76.9749L29.8667 78.9017V104.452H71.2152V78.9017L66.1158 76.9749Z" fill="#F4876C"/>
<path d="M67.6917 41.9234V35.8499C67.6917 31.2491 65.864 26.8367 62.6108 23.5834C59.3575 20.3302 54.9451 18.5025 50.3443 18.5025C45.7439 18.5039 41.3323 20.332 38.0794 23.585C34.8264 26.838 32.9983 31.2495 32.9969 35.8499V41.9234C31.1498 42.6633 28.5575 44.143 28.9301 47.7147C29.3027 51.2864 33.6143 51.6643 33.6143 51.6643C33.6143 51.6643 33.3695 57.0884 34.6044 59.4305C35.5945 61.3148 45.1438 66.8825 48.8699 68.9638C49.32 69.22 49.829 69.3547 50.3469 69.3547C50.8649 69.3547 51.3739 69.22 51.824 68.9638C55.5501 66.8346 65.0994 61.3148 66.0895 59.4305C67.3244 57.0884 67.0742 51.6643 67.0742 51.6643C67.0742 51.6643 71.3912 51.2917 71.7638 47.7147C72.1364 44.1377 69.5441 42.6633 67.6917 41.9234Z" fill="#F7D3C3"/>
<path d="M50.3442 69.6238C49.7844 69.6196 49.2349 69.4731 48.7473 69.198C43.8023 66.3928 35.3548 61.4159 34.3754 59.5582C33.2629 57.429 33.3108 52.995 33.3534 51.8932C32.3953 51.7441 29.0099 50.9776 28.6745 47.7466C28.3871 44.9681 29.7391 43.0039 32.7412 41.7424V35.8499C32.7412 31.1785 34.597 26.6984 37.9002 23.3952C41.2033 20.092 45.6834 18.2363 50.3548 18.2363C55.0262 18.2363 59.5063 20.092 62.8094 23.3952C66.1126 26.6984 67.9684 31.1785 67.9684 35.8499V41.7424C70.9918 43.0039 72.3225 44.9681 72.0351 47.7466C71.7051 50.9776 68.309 51.7441 67.3615 51.8932C67.3935 52.995 67.452 57.4343 66.3342 59.5582C65.3548 61.4159 56.9126 66.3928 51.9623 69.198C51.4684 69.4764 50.9112 69.623 50.3442 69.6238ZM50.3442 18.7686C45.8157 18.7743 41.4742 20.5757 38.2721 23.7778C35.0699 26.98 33.2685 31.3214 33.2629 35.8499V42.099L33.0979 42.1682C30.2075 43.3233 28.93 45.1331 29.1961 47.6881C29.5368 51.0096 33.5983 51.4141 33.6408 51.4141H33.891V51.6696C33.891 51.7228 33.6621 57.0511 34.8491 59.3027C35.5091 60.5536 40.8002 64.0933 49.0081 68.7296C49.4188 68.9624 49.8827 69.0848 50.3548 69.0848C50.8268 69.0848 51.2908 68.9624 51.7015 68.7296C59.9094 64.0773 65.2057 60.5536 65.8658 59.3027C67.0475 57.0511 66.8239 51.7228 66.8186 51.6696V51.4141H67.0741C67.2391 51.4141 71.178 51.0149 71.5187 47.6881C71.7849 45.1331 70.5074 43.3233 67.617 42.1682L67.4467 42.099V35.8499C67.4424 31.3173 65.6386 26.9718 62.4315 23.7688C59.2245 20.5657 54.8768 18.7672 50.3442 18.7686Z" fill="#E4B9A3"/>
<path d="M53.0483 37.0475C53.0483 37.0475 59.2123 37.3563 62.422 38.7136C62.422 38.7136 57.7964 34.3967 53.0483 37.0475Z" fill="#89434A"/>
<path d="M47.6456 37.0475C47.6456 37.0475 41.4764 37.3563 38.272 38.7136C38.272 38.7136 42.8976 34.3967 47.6456 37.0475Z" fill="#89434A"/>
<path d="M63.2203 43.5734C62.7651 43.8631 62.2548 44.0553 61.7215 44.1377C61.1883 44.2202 60.6438 44.1912 60.1224 44.0525C59.9661 44.0023 59.8147 43.9381 59.6699 43.8608C59.3505 43.6958 59.0471 43.5415 58.749 43.4084C58.1096 43.0769 57.3987 42.9069 56.6784 42.9134C55.7525 42.9878 54.8649 43.3156 54.1128 43.8608C54.2033 43.7331 55.7576 41.6731 57.4183 41.9446C59.0791 42.2161 60.0798 42.5674 61.1976 41.6146C60.7596 42.1742 60.181 42.6077 59.5209 42.8708C60.635 43.5275 61.943 43.776 63.2203 43.5734Z" fill="#89434A"/>
<path d="M60.1224 44.0526C59.8768 44.6453 59.4622 45.1527 58.9303 45.5115C58.3983 45.8702 57.7725 46.0644 57.1309 46.0699C54.8793 46.0699 54.1128 43.8609 54.1128 43.8609C54.8649 43.3157 55.7525 42.9879 56.6784 42.9135C56.2419 43.1796 58.5468 43.2914 58.403 43.0625C58.7064 43.2009 59.3505 43.6959 59.6699 43.8609C59.8147 43.9382 59.9661 44.0024 60.1224 44.0526Z" fill="white"/>
<path d="M58.8184 43.9088C58.8184 44.1728 58.7492 44.4323 58.6178 44.6613C58.4863 44.8903 58.2972 45.0809 58.0692 45.2141C57.8412 45.3472 57.5823 45.4184 57.3182 45.4204C57.0542 45.4224 56.7942 45.3553 56.5642 45.2256C56.3342 45.0959 56.1422 44.9082 56.0072 44.6813C55.8723 44.4543 55.7991 44.1959 55.7951 43.9319C55.7911 43.6679 55.8563 43.4074 55.9842 43.1764C56.1121 42.9454 56.2983 42.752 56.5242 42.6153C57.2442 42.6114 57.9545 42.7812 58.5948 43.1103C58.7436 43.3499 58.8211 43.6268 58.8184 43.9088Z" fill="#89434A"/>
<path d="M37.4731 43.5734C37.9282 43.8634 38.4386 44.0558 38.9718 44.1382C39.5051 44.2207 40.0497 44.1915 40.5711 44.0525C40.7273 44.0023 40.8788 43.9381 41.0236 43.8608C41.3429 43.6958 41.6463 43.5415 41.9444 43.4084C42.5836 43.0762 43.2947 42.9062 44.015 42.9134C44.9408 42.9886 45.8282 43.3163 46.5807 43.8608C46.4902 43.7331 44.9359 41.6731 43.2751 41.9446C41.6144 42.2161 40.6137 42.5674 39.4959 41.6146C39.9339 42.1742 40.5124 42.6077 41.1726 42.8708C40.0583 43.5271 38.7505 43.7755 37.4731 43.5734Z" fill="#89434A"/>
<path d="M40.5977 44.0526C40.8432 44.6453 41.2578 45.1527 41.7898 45.5115C42.3218 45.8702 42.9475 46.0644 43.5891 46.0699C45.8407 46.0699 46.6073 43.8609 46.6073 43.8609C45.8548 43.3164 44.9673 42.9887 44.0416 42.9135C44.4727 43.1796 42.1732 43.2914 42.3116 43.0625C42.0135 43.2009 41.3695 43.6959 41.0501 43.8609C40.9053 43.9382 40.7539 44.0024 40.5977 44.0526Z" fill="white"/>
<path d="M41.8701 43.9088C41.8707 44.1724 41.9402 44.4314 42.0717 44.6598C42.2033 44.8883 42.3923 45.0784 42.62 45.2113C42.8478 45.3441 43.1063 45.4151 43.3699 45.4172C43.6336 45.4193 43.8932 45.3524 44.1229 45.2231C44.3527 45.0939 44.5447 44.9067 44.6799 44.6804C44.815 44.454 44.8886 44.1962 44.8933 43.9326C44.898 43.669 44.8337 43.4087 44.7068 43.1777C44.5798 42.9466 44.3946 42.7527 44.1696 42.6153C43.4496 42.6108 42.7391 42.7806 42.099 43.1104C41.9486 43.3494 41.8692 43.6263 41.8701 43.9088Z" fill="#89434A"/>
<path d="M56.1197 58.121C56.1197 58.121 54.0544 60.9741 53.2347 61.847C52.2819 62.869 50.3444 62.8371 50.3444 62.8371C50.3444 62.8371 48.4068 62.869 47.4593 61.847C46.6343 60.9634 44.6488 58.2062 44.6116 58.1742L44.5796 58.1157H46.2297C46.2297 58.1157 46.3521 59.7605 48.3589 59.819C50.3656 59.8776 50.3603 59.8776 52.3564 59.819C54.3525 59.7605 54.4855 58.1157 54.4855 58.1157L56.1197 58.121Z" fill="#89434A"/>
<path d="M54.4641 58.121H46.2241C47.7731 57.2427 50.3441 57.2427 50.3441 57.2427C50.3441 57.2427 52.9151 57.2427 54.4641 58.121Z" fill="#EBBAB1"/>
<path d="M56.1197 58.121C56.1197 58.1582 54.4642 60.7505 54.1448 61.3626C53.7243 62.1717 52.2127 63.8271 50.3443 63.8271C48.476 63.8271 46.9643 62.1717 46.5437 61.3626C46.2244 60.7505 44.5742 58.1689 44.5742 58.121C45.1065 58.7757 46.6342 60.9687 47.4593 61.847C48.4067 62.869 50.3443 62.8371 50.3443 62.8371C50.3443 62.8371 52.2818 62.869 53.2346 61.847C54.0544 60.9741 55.598 58.7757 56.1197 58.121Z" fill="#F08F80"/>
<path d="M54.4639 58.121C54.4639 58.121 54.3414 59.7658 52.3347 59.8243C50.328 59.8829 50.3386 59.8829 48.3372 59.8243C46.3358 59.7658 46.208 58.121 46.208 58.121H54.4639Z" fill="white"/>
<path d="M51.0203 54.5599H48.5505L46.9536 52.6224L49.9771 42.6898L47.4487 52.4467L48.7954 54.0702H50.8447L52.4788 52.5798L52.1701 50.7434C52.1499 50.6271 52.1555 50.5077 52.1863 50.3937C52.2171 50.2798 52.2725 50.1739 52.3486 50.0836C52.4247 49.9933 52.5196 49.9208 52.6267 49.8711C52.7338 49.8214 52.8505 49.7957 52.9685 49.7959V52.798L51.0203 54.5599Z" fill="#E4B9A3"/>
<path d="M67.3666 18.8166C60.4468 10.6513 50.2161 11.0878 50.2161 11.0878C50.2161 11.0878 40.0068 10.6513 33.0604 18.8166C26.114 26.982 29.675 39.576 30.367 40.9653C30.367 40.9653 32.0171 54.773 33.928 58.68C33.928 58.68 31.6711 37.6651 38.6175 30.7134C38.6175 30.7134 44.0895 36.5366 50.2161 38.7936C55.7307 41.3113 67.4518 41.6573 67.4518 41.6573C68.0639 48.0874 66.499 58.6907 66.499 58.6907C68.4099 54.7836 70.06 40.976 70.06 40.976C70.752 39.576 74.3131 26.982 67.3666 18.8166Z" fill="#89434A"/>
<path d="M60.2023 17.177C61.8604 17.177 63.2044 15.8329 63.2044 14.1749C63.2044 12.5169 61.8604 11.1728 60.2023 11.1728C58.5443 11.1728 57.2002 12.5169 57.2002 14.1749C57.2002 15.8329 58.5443 17.177 60.2023 17.177Z" fill="#89434A"/>
<path d="M61.2295 11.3539C62.3739 10.1383 63.8504 9.28587 65.4753 8.90259C67.1002 8.5193 68.802 8.62206 70.369 9.19809C76.1284 11.093 78.7472 18.625 79.5244 25.6992C80.2323 32.1718 82.0528 34.4607 84.9697 33.9869C84.9697 33.9869 78.9708 37.9366 75.5801 29.2495C72.1894 20.5625 69.134 13.5363 63.1989 13.5416" fill="#89434A"/>
<path d="M43.2274 14.1749C43.2274 14.7687 43.0514 15.3491 42.7215 15.8428C42.3916 16.3365 41.9227 16.7213 41.3742 16.9485C40.8256 17.1758 40.222 17.2352 39.6396 17.1194C39.0573 17.0035 38.5223 16.7176 38.1025 16.2977C37.6826 15.8779 37.3967 15.343 37.2808 14.7606C37.165 14.1783 37.2245 13.5746 37.4517 13.0261C37.6789 12.4775 38.0637 12.0086 38.5574 11.6788C39.0511 11.3489 39.6316 11.1728 40.2253 11.1728C41.0215 11.1728 41.7851 11.4891 42.3481 12.0521C42.9111 12.6151 43.2274 13.3787 43.2274 14.1749Z" fill="#89434A"/>
<path d="M39.1982 11.3539C38.0538 10.1383 36.5774 9.28587 34.9524 8.90259C33.3275 8.5193 31.6258 8.62206 30.0588 9.19809C24.2993 11.093 21.6805 18.625 20.9033 25.6992C20.1954 32.1718 18.3803 34.4607 15.458 33.9869C15.458 33.9869 21.457 37.9366 24.853 29.2495C28.249 20.5625 31.2937 13.5363 37.2288 13.5416" fill="#89434A"/>
</svg>
