<svg width="268" height="498" viewBox="0 0 268 498" fill="none" xmlns="http://www.w3.org/2000/svg">
<path fill-rule="evenodd" clip-rule="evenodd" d="M34.015 0C17.4464 0 4.01498 13.4315 4.01498 30V95C1.79757 95 0 96.7976 0 99.015V145.985C0 148.202 1.79757 150 4.01498 150V170C1.79757 170 0 171.798 0 174.015V220.985C0 223.202 1.79757 225 4.01498 225V468C4.01498 484.569 17.4464 498 34.015 498H233.985C250.554 498 263.985 484.569 263.985 468V185C266.202 185 268 183.202 268 180.985V134.015C268 131.798 266.202 130 263.985 130V30C263.985 13.4315 250.554 0 233.985 0H34.015Z" fill="white"/>
<rect x="34.814" y="173.59" width="126.986" height="10.358" rx="5.17899" fill="#E7E8EC"/>
<rect x="34.814" y="255.159" width="65.8955" height="10.358" rx="5.17899" fill="#E7E8EC"/>
<rect x="34.1274" y="314.718" width="65.8955" height="10.358" rx="5.17899" fill="#E7E8EC"/>
<rect x="142.58" y="255.159" width="65.8955" height="10.358" rx="5.17899" fill="#E7E8EC"/>
<rect x="141.894" y="314.718" width="65.8955" height="10.358" rx="5.17899" fill="#E7E8EC"/>
<rect x="34.814" y="203.37" width="176.408" height="10.358" rx="5.17899" fill="#E7E8EC"/>
<rect x="34.814" y="284.938" width="91.2928" height="10.358" rx="5.17899" fill="#E7E8EC"/>
<rect x="34.1274" y="344.497" width="91.2928" height="10.358" rx="5.17899" fill="#E7E8EC"/>
<rect x="34.1274" y="424" width="198.742" height="40" rx="20" fill="#E7E8EC"/>
<rect x="142.58" y="284.938" width="91.2928" height="10.358" rx="5.17899" fill="#E7E8EC"/>
<rect x="141.894" y="344.497" width="91.2928" height="10.358" rx="5.17899" fill="#E7E8EC"/>
<path d="M223.329 35H45.1507C39.0627 35 34.1274 39.3685 34.1274 44.7572V135.243C34.1274 140.632 39.0627 145 45.1507 145H223.329C229.417 145 234.352 140.632 234.352 135.243V44.7572C234.352 39.3685 229.417 35 223.329 35Z" fill="url(#paint0_linear)"/>
<path opacity="0.3" d="M234.352 54.7014H34.1274V83.4328H234.352V54.7014Z" fill="white"/>
<path opacity="0.3" d="M63.0163 132.802C70.8252 132.802 77.1556 126.496 77.1556 118.716C77.1556 110.936 70.8252 104.629 63.0163 104.629C55.2073 104.629 48.877 110.936 48.877 118.716C48.877 126.496 55.2073 132.802 63.0163 132.802Z" fill="white"/>
<defs>
<linearGradient id="paint0_linear" x1="217.049" y1="24.7388" x2="81.0966" y2="137.701" gradientUnits="userSpaceOnUse">
<stop stop-color="#139FFD"/>
<stop offset="1" stop-color="#63C0FF"/>
</linearGradient>
</defs>
</svg>
