<svg width="31" height="27" viewBox="0 0 31 27" fill="none" xmlns="http://www.w3.org/2000/svg">
<path d="M16.8485 16.6734H1.89685C0.848005 16.6734 0 17.5035 0 18.5301C0 19.5568 0.848005 20.3868 1.89685 20.3868H19.1247C19.1247 20.3868 20.0174 19.5131 19.0578 18.0933C18.0759 16.6734 16.8485 16.6734 16.8485 16.6734Z" fill="white"/>
<path d="M16.0897 1.0526L6.80629 16.7798C6.29303 17.6753 6.58313 18.8112 7.49809 19.3136C8.41304 19.816 9.57347 19.532 10.0867 18.6364L19.3702 2.90928C19.8834 2.01371 19.5933 0.877858 18.6784 0.375463C17.7634 -0.148776 16.603 0.15703 16.0897 1.0526Z" fill="white"/>
<path d="M27.4486 23.5334L17.9197 7.34748C17.9197 7.34748 16.5361 8.39596 16.5361 10.4711C16.5361 12.5462 17.4065 13.9442 17.4065 13.9442L24.1682 25.4119C24.6814 26.3075 25.8419 26.6133 26.7568 26.089C27.6495 25.5648 27.9619 24.4289 27.4486 23.5334Z" fill="white"/>
<path d="M28.4079 16.6734H23.119C22.0702 16.6734 21.2222 17.5035 21.2222 18.5301C21.2222 19.5568 22.0702 20.3868 23.119 20.3868H28.4079C29.4567 20.3868 30.3047 19.5568 30.3047 18.5301C30.3047 17.5253 29.4567 16.6734 28.4079 16.6734Z" fill="white"/>
<path d="M16.2011 4.46371L14.1927 1.03431C13.6794 0.160581 12.4967 -0.145225 11.6041 0.35717C10.7114 0.859566 10.399 2.01726 10.9123 2.89099L12.9207 6.32039C13.434 7.19412 14.6167 7.49993 15.5093 6.99753C16.402 6.49513 16.7144 5.35928 16.2011 4.46371Z" fill="white"/>
<path d="M2.83364 23.5098L4.0387 21.4784C4.0387 21.4784 4.3288 20.9104 5.46691 20.9104C6.67197 20.9104 7.8324 21.8934 7.92167 22.2647L6.11408 25.3665C5.60081 26.262 4.44038 26.5679 3.52543 26.0436C2.61048 25.5412 2.32037 24.4054 2.83364 23.5098Z" fill="white"/>
</svg>
