<svg width="102" height="105" viewBox="0 0 102 105" fill="none" xmlns="http://www.w3.org/2000/svg">
<path d="M87.2888 104.468H14.4394C6.65726 104.468 0.349609 97.9419 0.349609 89.8989V14.5689C0.349609 6.52064 6.65726 0 14.4394 0H87.2888C95.0709 0 101.379 6.52064 101.379 14.5689V89.8989C101.379 97.9419 95.0709 104.468 87.2888 104.468Z" fill="#60BFFF"/>
<path d="M79.9223 86.4496C79.475 84.9443 78.6937 83.5593 77.6366 82.398C76.5794 81.2368 75.2738 80.329 73.8169 79.7427L71.7249 78.907L67.2857 77.1185L60.962 74.5795L58.6891 73.6693L58.6306 73.6426C58.4476 74.8285 57.8462 75.9097 56.9354 76.6907C56.0245 77.4717 54.8642 77.901 53.6643 77.901H50.8857V104.478H83.3556L79.9223 86.4496Z" fill="#167270"/>
<path d="M58.689 73.6693L67.9297 81.8134L64.6401 87.6951L65.9974 91.8044C65.9974 91.8044 60.6106 101.098 56.3363 104.468H52.7646L55.0269 89.0312L58.689 73.6693Z" fill="#2E9F9C"/>
<path d="M58.6253 73.6426C58.6253 73.6426 63.0167 88.8874 55.027 104.468H50.8857V80.3336L58.6253 73.6426Z" fill="#D2D3D5"/>
<path d="M58.6834 63.6462V72.8708C58.6855 73.1293 58.666 73.3875 58.625 73.6426C58.4441 74.8285 57.8441 75.9102 56.9339 76.6915C56.0236 77.4728 54.8635 77.902 53.664 77.901H48.0429C46.8503 77.8999 45.697 77.4747 44.7891 76.7014C43.8813 75.9281 43.2781 74.8572 43.0874 73.6799C43.0445 73.416 43.0231 73.1489 43.0234 72.8815V63.6568L58.6834 63.6462Z" fill="#F7D3C3"/>
<path d="M50.8696 81.9092L53.6004 80.7753L53.8717 82.2445C56.0914 81.0734 59.3916 77.5922 59.3916 77.5922L58.6836 73.6693C56.2287 75.3374 53.6106 76.7517 50.8696 77.8904V81.9092Z" fill="#F0F0F2"/>
<path d="M21.8009 86.4496C22.2502 84.9444 23.0329 83.5598 24.0909 82.3987C25.1488 81.2376 26.4548 80.3297 27.9118 79.7427L30.0036 78.907L34.4429 77.1185L40.7666 74.5795L43.0395 73.6693L43.098 73.6426C43.2798 74.828 43.8801 75.9091 44.7901 76.6902C45.7001 77.4713 46.8597 77.9009 48.059 77.901H50.8375V104.478H18.3677L21.8009 86.4496Z" fill="#167270"/>
<path d="M43.0394 73.6693L33.7935 81.8134L37.0831 87.6951L35.7257 91.8044C35.7257 91.8044 41.1125 101.098 45.3868 104.468H48.9638L46.7015 89.0312L43.0394 73.6693Z" fill="#2E9F9C"/>
<path d="M43.0983 73.6426C43.0983 73.6426 38.7122 88.8874 46.7019 104.468H50.8378V80.3336L43.0983 73.6426Z" fill="#D2D3D5"/>
<path d="M50.8535 81.9092L48.1283 80.7753L47.8568 82.2445C45.6371 81.0734 42.3315 77.5922 42.3315 77.5922L43.0395 73.6693C45.4953 75.3361 48.1132 76.7503 50.8535 77.8904V81.9092Z" fill="#F0F0F2"/>
<path d="M52.3656 81.3129L53.6006 80.7806C53.0683 78.1192 51.9504 77.4485 51.9504 77.4485C51.6248 77.6245 51.2544 77.7005 50.8858 77.6668C50.5033 77.6787 50.123 77.604 49.7733 77.4485C49.7733 77.4485 48.7088 78.1405 48.1286 80.7806L49.3634 81.3129L47.4419 104.468H54.2818L52.3656 81.3129Z" fill="#167270"/>
<path d="M68.7599 39.8048C68.6961 38.16 68.6055 36.5313 68.5096 34.9291C68.2381 30.4573 66.2683 26.2583 63.0031 23.191C59.7379 20.1236 55.424 18.4198 50.944 18.428H50.7471C46.2671 18.4198 41.9532 20.1236 38.688 23.191C35.4228 26.2583 33.453 30.4573 33.1815 34.9291C33.0856 36.5259 33.0005 38.1229 32.9366 39.7517C32.9366 39.7517 27.1612 39.5387 29.1573 45.9155C31.1534 52.2924 31.5419 52.5692 33.1122 52.4414C33.7616 58.7385 35.7737 62.3102 41.1499 65.9511C47.1754 70.0178 49.3312 70.0817 50.8322 69.9646C52.328 70.0817 54.4839 70.0231 60.5094 65.9564C65.8962 62.3155 67.9029 58.7491 68.5523 52.4521C70.1172 52.5852 70.5004 52.3244 72.5018 45.9422C74.5033 39.56 68.7653 39.8048 68.7599 39.8048Z" fill="#F7D3C3"/>
<path d="M50.2148 70.2518C48.6179 70.2518 46.2226 69.677 41.0327 66.1745C35.7524 62.6082 33.5806 59.0684 32.9046 52.7342C31.3344 52.8034 30.8447 52.1007 28.9391 46.0219C28.2631 43.8608 28.3748 42.1895 29.2797 41.0557C30.307 39.7622 32.0422 39.5705 32.7129 39.5439C32.7662 38.1546 32.8408 36.7175 32.9366 35.1685C33.2222 30.634 35.2243 26.3786 38.5358 23.2678C41.8473 20.157 46.2196 18.4245 50.7631 18.4226H50.9599C55.5043 18.4231 59.8779 20.1551 63.1906 23.266C66.5032 26.3769 68.5061 30.6331 68.7917 35.1685C68.8822 36.7228 68.9568 38.1546 69.0154 39.5439C69.6861 39.5705 71.432 39.7675 72.4486 41.0557C73.3482 42.1948 73.4653 43.8662 72.7892 46.0167C70.8783 52.1008 70.3886 52.798 68.8184 52.7342C68.1211 59.0684 65.9706 62.6082 60.6903 66.1745C54.7818 70.1614 52.5089 70.3584 50.8428 70.2253C50.6459 70.2413 50.433 70.2518 50.2148 70.2518ZM33.3836 52.1539L33.4103 52.4094C34.0597 58.7277 36.1357 62.2089 41.3308 65.7167C47.1009 69.6078 49.2673 69.8048 50.8428 69.6771C52.4397 69.8048 54.6274 69.6078 60.3921 65.7167C65.5926 62.2036 67.6633 58.7224 68.318 52.4094L68.3447 52.1539H68.6055C69.9043 52.2604 70.2502 52.2924 72.2783 45.825C72.8957 43.8715 72.8106 42.381 72.0601 41.391C70.9689 39.9644 68.7918 40.0389 68.7705 40.0389H68.5044V39.7728C68.4458 38.309 68.3712 36.8026 68.2701 35.1578C67.9926 30.758 66.0494 26.6291 62.8357 23.6112C59.622 20.5932 55.3792 18.913 50.9706 18.9123H50.7737C46.3657 18.9131 42.1236 20.5935 38.9107 23.6115C35.6979 26.6296 33.7557 30.7585 33.4795 35.1578C33.3784 36.8026 33.3039 38.309 33.24 39.7781V40.0443H32.9739C32.9739 40.0443 30.7754 39.9697 29.6896 41.391C28.9284 42.381 28.8539 43.8768 29.466 45.8303C31.4941 52.2924 31.8453 52.2604 33.1441 52.1539H33.3836Z" fill="#E4B9A3"/>
<path d="M54.1699 34.8491V34.8864C54.2102 35.0232 54.2804 35.1494 54.3754 35.2559C54.4704 35.3623 54.5879 35.4462 54.7192 35.5017C54.8506 35.5572 54.9927 35.5829 55.1352 35.5768C55.2777 35.5708 55.4171 35.5331 55.5433 35.4666C57.3052 34.5564 61.1855 33.215 63.9854 37.0635C63.9854 37.0635 62.708 31.2721 54.7981 33.6887C54.5639 33.7637 54.3677 33.9264 54.2506 34.1427C54.1336 34.3589 54.1046 34.612 54.1699 34.8491Z" fill="#89434A"/>
<path d="M47.5586 34.8491V34.8864C47.519 35.0231 47.4494 35.1492 47.355 35.2556C47.2605 35.362 47.1435 35.446 47.0125 35.5016C46.8815 35.5572 46.7398 35.5829 46.5976 35.5768C46.4554 35.5708 46.3164 35.5331 46.1906 35.4666C44.4287 34.5564 40.5483 33.215 37.7432 37.0635C37.7432 37.0635 39.0207 31.2721 46.9305 33.6887C47.164 33.7648 47.3592 33.9276 47.4761 34.1436C47.593 34.3595 47.6225 34.612 47.5586 34.8491Z" fill="#89434A"/>
<path d="M53.2704 53.0056H52.8659C50.3109 52.8619 49.257 52.8087 48.8099 52.1966C48.3627 51.5844 48.6395 50.8392 49.0334 49.3541C49.1505 48.9069 49.2836 48.396 49.4273 47.8158C50.5451 43.1795 49.4273 39.9166 49.4273 39.8847C49.4273 39.8528 51.056 43.1476 49.901 47.9276C49.7572 48.5184 49.6242 49.0295 49.5017 49.4766C49.1611 50.7754 48.9696 51.5578 49.2038 51.9038C49.438 52.2498 51.3329 52.1433 52.5891 52.0848C52.7041 52.0796 52.8187 52.1033 52.9223 52.1535C53.0259 52.2038 53.1153 52.2791 53.1824 52.3726C53.2496 52.4662 53.2922 52.5751 53.3067 52.6893C53.3211 52.8036 53.3068 52.9196 53.2651 53.027L53.2704 53.0056Z" fill="#E4B9A3"/>
<path d="M58.4547 45.9528C59.8158 45.9528 60.9193 44.8494 60.9193 43.4883C60.9193 42.1272 59.8158 41.0237 58.4547 41.0237C57.0936 41.0237 55.9902 42.1272 55.9902 43.4883C55.9902 44.8494 57.0936 45.9528 58.4547 45.9528Z" fill="white"/>
<path d="M58.4552 44.5582C59.0461 44.5582 59.5251 44.0792 59.5251 43.4883C59.5251 42.8974 59.0461 42.4184 58.4552 42.4184C57.8643 42.4184 57.3853 42.8974 57.3853 43.4883C57.3853 44.0792 57.8643 44.5582 58.4552 44.5582Z" fill="#89434A"/>
<path d="M42.6721 45.9528C44.0332 45.9528 45.1366 44.8494 45.1366 43.4883C45.1366 42.1272 44.0332 41.0237 42.6721 41.0237C41.311 41.0237 40.2075 42.1272 40.2075 43.4883C40.2075 44.8494 41.311 45.9528 42.6721 45.9528Z" fill="white"/>
<path d="M42.6725 44.5582C43.2633 44.5582 43.7424 44.0792 43.7424 43.4883C43.7424 42.8974 43.2633 42.4184 42.6725 42.4184C42.0816 42.4184 41.6025 42.8974 41.6025 43.4883C41.6025 44.0792 42.0816 44.5582 42.6725 44.5582Z" fill="#89434A"/>
<path d="M60.323 54.7036C59.7109 58.5255 56.1871 61.4584 51.9394 61.4584C50.6998 61.4679 49.4724 61.2116 48.3402 60.7066C47.208 60.2016 46.1973 59.4596 45.3762 58.5308C44.4464 57.4778 43.8256 56.1883 43.5825 54.8047C43.5799 54.7657 43.5799 54.7266 43.5825 54.6876C49.1299 55.6316 54.7969 55.6316 60.3443 54.6876L60.323 54.7036Z" fill="white"/>
<path d="M58.0129 56.7264C58.0129 56.8169 51.6255 59.8509 45.8767 56.7264L43.5825 54.8207C43.8257 56.2043 44.4464 57.4938 45.3763 58.5468L45.8448 57.5408C47.7831 58.3293 49.8524 58.7464 51.9448 58.7704C54.0394 58.7048 56.1053 58.2649 58.0449 57.4715L58.5133 58.5361C59.4448 57.4842 60.0658 56.1942 60.3071 54.8101L58.0129 56.7264Z" fill="#89434A"/>
<path d="M51.9399 61.7034C50.6653 61.7137 49.4032 61.4505 48.2389 60.9317C47.0746 60.4129 46.0351 59.6505 45.1904 58.6958C44.2322 57.6116 43.5929 56.2833 43.3434 54.858C43.3387 54.8174 43.3387 54.7763 43.3434 54.7356L43.3008 54.4003L43.6307 54.4641C49.1508 55.3938 54.7875 55.3938 60.3075 54.4641L60.6536 54.4003L60.595 54.7463C59.9296 58.7118 56.2195 61.7034 51.9399 61.7034ZM43.8704 55.0124C44.1381 56.2583 44.7209 57.4148 45.563 58.3712C46.3618 59.2751 47.3455 59.9967 48.4476 60.4871C49.5497 60.9775 50.7443 61.2252 51.9505 61.2136C55.8629 61.2136 59.2748 58.5522 60.0307 55.0124C54.6817 55.8712 49.23 55.8712 43.881 55.0124H43.8704Z" fill="#E4B9A3"/>
<path d="M68.047 41.9499C68.1476 41.9413 68.2489 41.9537 68.3446 41.9863C68.4402 42.0189 68.528 42.071 68.6024 42.1393C68.6768 42.2076 68.7361 42.2906 68.7768 42.3831C68.8174 42.4755 68.8384 42.5755 68.8384 42.6765C68.8384 42.7775 68.8174 42.8775 68.7768 42.9699C68.7361 43.0624 68.6768 43.1454 68.6024 43.2137C68.528 43.282 68.4402 43.3341 68.3446 43.3667C68.2489 43.3993 68.1476 43.4117 68.047 43.4031H67.7435C67.8075 44.0023 67.8343 44.6051 67.8234 45.2076C67.7755 48.8591 65.5612 50.9244 61.4359 51.1799C61.1538 51.1799 60.9036 51.1799 60.6162 51.1799C57.4224 51.1799 55.3464 49.8918 53.2599 46.6608C51.8972 44.5316 51.6631 42.807 51.7323 41.5827H50.0076C50.0928 42.807 49.8372 44.5529 48.4746 46.6608C46.388 49.8918 44.3333 51.1799 41.1182 51.1799C40.8574 51.1799 40.5859 51.1799 40.3038 51.1799C36.1679 50.9244 33.9589 48.8591 33.9163 45.2076C33.9057 44.6051 33.9324 44.0023 33.9962 43.4031H33.6928C33.5921 43.4117 33.4908 43.3993 33.3952 43.3667C33.2996 43.3341 33.2118 43.282 33.1374 43.2137C33.063 43.1454 33.0036 43.0624 32.963 42.9699C32.9223 42.8775 32.9014 42.7775 32.9014 42.6765C32.9014 42.5755 32.9223 42.4755 32.963 42.3831C33.0036 42.2906 33.063 42.2076 33.1374 42.1393C33.2118 42.071 33.2996 42.0189 33.3952 41.9863C33.4908 41.9537 33.5921 41.9413 33.6928 41.9499H34.273C34.2862 41.9026 34.2969 41.8546 34.305 41.8062C35.0236 39.4428 36.8068 38.1813 39.7557 37.9418C42.5662 37.7129 45.4139 37.5852 47.3035 38.1334H54.4575C56.3418 37.6011 59.1949 37.7129 62.0107 37.9418C64.949 38.1813 66.7321 39.4428 67.4507 41.8062C67.4507 41.8488 67.4508 41.902 67.4827 41.9499H68.047ZM66.8227 45.1916C66.8388 44.6138 66.8121 44.0356 66.7429 43.4617C66.6962 42.9985 66.6071 42.5405 66.4767 42.0937C65.8752 40.1189 64.4699 39.1448 61.9096 38.9372C60.5736 38.8307 59.2481 38.7402 58.0079 38.7402C56.8746 38.7059 55.7422 38.8313 54.6439 39.1128H54.5853C54.0541 39.2495 53.5782 39.547 53.2226 39.9645C52.9895 40.3286 52.8388 40.7391 52.7808 41.1675C52.6318 42.0351 52.5999 43.829 54.0956 46.1232C56.427 49.7268 58.5242 50.3282 61.3667 50.1632C64.9809 49.9609 66.7801 48.3322 66.8227 45.1916ZM52.6531 39.1341H49.0708C49.1544 39.2159 49.2326 39.303 49.305 39.3949C49.5586 39.7635 49.7393 40.1773 49.8373 40.6139H51.8865C51.9833 40.1753 52.164 39.7595 52.4188 39.3896C52.491 39.2992 52.5693 39.2138 52.6531 39.1341ZM47.6282 46.1445C49.1292 43.8343 49.0974 42.0564 48.943 41.1941C48.8884 40.7633 48.7374 40.3503 48.5012 39.9858C48.1456 39.5683 47.6696 39.2708 47.1385 39.1341H47.08C45.9817 38.8529 44.8492 38.7275 43.7159 38.7615C42.4863 38.7615 41.1502 38.8521 39.8195 38.9585C37.2538 39.1661 35.8485 40.1402 35.247 42.115C35.1171 42.5602 35.028 43.0163 34.9809 43.4777C34.9229 43.9634 34.8963 44.4523 34.9011 44.9415V45.213C34.9437 48.3535 36.7269 50.0035 40.3571 50.2058C43.1942 50.3495 45.2861 49.7481 47.6282 46.1445Z" fill="#89434A"/>
<g opacity="0.2">
<path opacity="0.2" d="M66.7427 43.4616C66.812 44.0355 66.8386 44.6138 66.8225 45.1916C66.7799 48.3321 64.9967 49.9822 61.3665 50.1844C58.5241 50.3494 56.4269 49.748 54.0954 46.1444C52.5997 43.8343 52.6316 42.0564 52.7807 41.1887C52.8387 40.7604 52.9893 40.3498 53.2224 39.9858C53.578 39.5682 54.054 39.2707 54.5851 39.134H54.6437C55.742 38.8525 56.8744 38.7271 58.0077 38.7615C59.232 38.7615 60.5734 38.852 61.9094 38.9585C64.4698 39.1661 65.8751 40.1401 66.4766 42.1149C66.6057 42.5549 66.6948 43.0056 66.7427 43.4616Z" fill="#89434A"/>
</g>
<g opacity="0.2">
<path opacity="0.2" d="M48.9429 41.1941C49.0973 42.0564 49.1291 43.8556 47.628 46.1445C45.2966 49.7481 43.1941 50.3495 40.3569 50.1845C36.7267 49.9609 34.9435 48.3322 34.9009 45.1916V44.9202C34.8961 44.431 34.9227 43.9421 34.9807 43.4564C35.0279 42.995 35.117 42.5389 35.2469 42.0937C35.8484 40.1189 37.2537 39.1448 39.8193 38.9372C41.1501 38.8307 42.4808 38.7402 43.7157 38.7402C44.849 38.7062 45.9815 38.8316 47.0799 39.1128H47.1383C47.6695 39.2495 48.1454 39.547 48.501 39.9645C48.7402 40.3353 48.8914 40.7559 48.9429 41.1941Z" fill="#89434A"/>
</g>
<path d="M70.4049 30.3088C68.5046 26.1463 64.1877 25.9918 64.5869 26.2101C66.7587 27.3811 67.7806 31.1232 67.0567 34.9238C66.3328 38.7243 70.4368 40.8961 70.4368 40.8961C70.1654 36.5526 72.3052 34.4714 70.4049 30.3088Z" fill="#89434A"/>
<path d="M31.2494 30.3087C29.3491 34.4712 31.489 36.5524 31.2175 40.8959C31.2175 40.8959 35.3214 38.7242 34.5975 34.9236C33.8736 31.123 34.8956 27.381 37.0674 26.2099C37.4613 25.9917 33.1496 26.1249 31.2494 30.3087Z" fill="#89434A"/>
</svg>
