<svg width="102" height="105" viewBox="0 0 102 105" fill="none" xmlns="http://www.w3.org/2000/svg">
<path d="M86.969 104.468H14.1195C6.33739 104.468 0.0244141 97.9418 0.0244141 89.8935V14.5688C0.0244141 6.52058 6.33739 0 14.1195 0H86.969C94.7511 0 101.059 6.52058 101.059 14.5688V89.8935C101.059 97.9418 94.7511 104.468 86.969 104.468Z" fill="#19A2FE"/>
<path d="M74.3647 52.2552C78.6656 46.895 76.0361 43.7119 76.0361 43.7119C75.6602 43.0092 75.1439 42.3914 74.5191 41.8967C71.5575 39.6278 69.2776 36.5873 67.9293 33.1086C66.3324 29.1803 65.9598 27.099 61.5418 24.6664C60.2886 23.9623 58.8753 23.5925 57.4378 23.5925C56.0004 23.5925 54.587 23.9623 53.3338 24.6664C45.2377 18.6569 35.7682 28.2541 31.8239 32.7626C31.3102 33.3528 30.832 33.9732 30.3921 34.6203C27.5124 37.4042 24.771 44.2655 25.463 47.4486C26.155 50.6317 25.7558 52.5373 24.3665 54.56C22.9772 56.5827 21.8221 58.318 24.3665 60.7452C26.9109 63.1725 27.8371 63.4599 27.4325 67.2179C27.028 70.9759 28.0074 71.7317 31.0148 71.6732C34.0223 71.6146 35.1188 73.0039 36.6252 76.0646C38.1316 79.1253 44.0666 81.7442 52.051 81.0469C60.0354 80.3496 61.414 74.2867 63.6124 73.2435C65.8108 72.2002 69.1962 72.7112 71.2774 70.9652C73.3587 69.2193 71.4371 65.44 72.8743 64.0454C74.3115 62.6508 76.116 60.4471 74.7427 58.0891C73.7739 56.4709 72.1876 54.9699 74.3647 52.2552Z" fill="#89434A"/>
<path d="M80.7094 104.468H20.3794C20.3794 104.468 20.9436 89.0312 21.5079 86.4496C21.7375 85.4156 22.1758 84.4393 22.796 83.5805C23.4538 82.6496 24.253 81.827 25.1647 81.1427C25.3776 80.9776 25.6065 80.8126 25.8354 80.6689C26.3411 80.3363 26.8755 80.0495 27.4323 79.8119L27.5973 79.7427L43.8535 73.6054L50.5231 71.0876L57.1714 73.5948L63.9582 76.1551L73.4543 79.7427L73.6193 79.8119C74.1771 80.0473 74.7117 80.3342 75.2162 80.6689C75.4504 80.8126 75.6739 80.9776 75.8922 81.1427C76.8029 81.8297 77.6035 82.6518 78.2662 83.5805C78.8805 84.442 79.3166 85.4174 79.549 86.4496C80.1345 89.0525 80.7094 104.468 80.7094 104.468Z" fill="#FDD983"/>
<path d="M50.5283 81.9411C49.5811 81.9412 48.6443 81.743 47.7784 81.3591C46.9125 80.9752 46.1366 80.4141 45.5007 79.712C44.8648 79.01 44.3831 78.1825 44.0866 77.2829C43.79 76.3833 43.6852 75.4315 43.7789 74.489L44.9765 62.2835H56.0482L57.2725 74.473C57.3693 75.4165 57.267 76.3699 56.9722 77.2714C56.6773 78.1729 56.1965 79.0025 55.5608 79.7065C54.9251 80.4104 54.1486 80.973 53.2818 81.358C52.4149 81.7429 51.4768 81.9416 50.5283 81.9411Z" fill="#F7D3C3"/>
<path d="M54.9783 77.9224L50.5283 81.9412C50.5283 81.9412 50.8104 82.6544 51.0606 82.6757C51.3108 82.697 55.5372 83.0324 55.649 82.8993C55.7608 82.7662 56.7135 81.9891 56.7614 81.9412C57.0134 81.1439 57.2055 80.3291 57.3363 79.5033C57.2405 79.3702 54.9783 77.9224 54.9783 77.9224Z" fill="#FDD983"/>
<path d="M59.8169 74.5902L55.8619 81.9411L52.9609 76.1817L57.1075 72.8442L59.8169 74.5902Z" fill="#EA8686"/>
<path d="M54.4034 79.0508L50.5283 81.9412L52.9609 76.1818L54.4034 79.0508Z" fill="#D76968"/>
<path d="M46.0893 77.9224L50.5446 81.9358C50.5446 81.9358 50.2571 82.6491 50.0389 82.6704C49.8207 82.6917 45.557 83.027 45.4452 82.894C45.3335 82.7609 44.3807 81.9837 44.3381 81.9358C44.0837 81.1393 43.8914 80.3242 43.7632 79.4979C43.8271 79.3702 46.0893 77.9224 46.0893 77.9224Z" fill="#FDD983"/>
<path d="M41.2505 74.5902L45.2107 81.9411L48.1064 76.1817L43.9599 72.8442L41.2505 74.5902Z" fill="#EA8686"/>
<path d="M46.6641 79.0508L50.5392 81.9412L48.1066 76.1818L46.6641 79.0508Z" fill="#D76968"/>
<path d="M51.2259 104.468H49.8579V81.1639L50.5286 81.9198L51.2259 81.1639V104.468Z" fill="#D76968"/>
<path d="M49.4854 79.4393H51.5826L50.5286 81.9198L49.4854 79.4393Z" fill="#F1F2F2"/>
<path d="M67.7215 41.9234V35.8499C67.7215 31.2491 65.8938 26.8367 62.6405 23.5834C59.3872 20.3302 54.9749 18.5025 50.374 18.5025C48.0959 18.5025 45.8402 18.9512 43.7355 19.823C41.6308 20.6948 39.7185 21.9726 38.1076 23.5834C36.4967 25.1943 35.2189 27.1067 34.3471 29.2113C33.4754 31.316 33.0266 33.5718 33.0266 35.8499V41.9234C31.1796 42.6633 28.5873 44.143 28.9599 47.7147C29.3325 51.2864 33.6441 51.6643 33.6441 51.6643C33.6441 51.6643 33.3993 57.0884 34.6342 59.4305C35.6242 61.3148 45.1736 66.8825 48.8996 68.9638C49.3497 69.22 49.8588 69.3547 50.3767 69.3547C50.8946 69.3547 51.4037 69.22 51.8538 68.9638C55.5799 66.8346 65.1292 61.3148 66.1193 59.4305C67.3542 57.0884 67.104 51.6643 67.104 51.6643C67.104 51.6643 71.4209 51.2917 71.7935 47.7147C72.1661 44.1377 69.5738 42.6633 67.7215 41.9234Z" fill="#F7D3C3"/>
<path d="M50.3739 69.6238C49.814 69.6201 49.2644 69.4735 48.777 69.198C43.832 66.3928 35.3845 61.4159 34.4051 59.5582C33.2926 57.429 33.3405 52.995 33.3831 51.8932C32.4197 51.7441 29.0396 50.9776 28.7043 47.7466C28.4169 44.9681 29.7689 43.0039 32.771 41.7424V35.8499C32.771 31.1785 34.6267 26.6984 37.9299 23.3952C41.2331 20.092 45.7131 18.2363 50.3846 18.2363C55.056 18.2363 59.536 20.092 62.8392 23.3952C66.1424 26.6984 67.9981 31.1785 67.9981 35.8499V41.7424C71.0215 43.0039 72.3522 44.9681 72.0648 47.7466C71.7348 50.9776 68.3388 51.7441 67.3913 51.8932C67.4232 52.995 67.4818 57.4343 66.364 59.5582C65.3846 61.4159 56.9424 66.3928 51.9921 69.198C51.4987 69.4777 50.9411 69.6245 50.3739 69.6238ZM50.3739 18.7686C45.8454 18.7743 41.504 20.5757 38.3019 23.7778C35.0997 26.98 33.2983 31.3214 33.2927 35.8499V42.099L33.1276 42.1682C30.2373 43.3233 28.9598 45.1331 29.2259 47.6881C29.5666 51.0096 33.628 51.4141 33.6653 51.4141H33.9208V51.6696C33.9208 51.7228 33.6919 57.0511 34.8789 59.3027C35.5389 60.5536 40.8299 64.0933 49.0379 68.7296C49.4485 68.9624 49.9125 69.0848 50.3846 69.0848C50.8566 69.0848 51.3206 68.9624 51.7313 68.7296C59.9392 64.0773 65.2355 60.5536 65.8956 59.3027C67.0772 57.0511 66.8537 51.7228 66.8484 51.6696V51.4141H67.1039C67.2689 51.4141 71.2025 51.0149 71.5485 47.6881C71.8146 45.1331 70.5371 43.3233 67.6415 42.1682L67.4764 42.099V35.8499C67.4722 31.3173 65.6683 26.9718 62.4613 23.7688C59.2542 20.5657 54.9065 18.7672 50.3739 18.7686Z" fill="#E4B9A3"/>
<path d="M61.7334 45.5856C61.7334 47.1824 60.1365 46.3733 58.5396 46.3733C56.9428 46.3733 55.9048 47.2037 55.9048 45.5856C55.9048 44.8091 56.2132 44.0645 56.7623 43.5154C57.3113 42.9664 58.0559 42.658 58.8324 42.658C59.6088 42.658 60.3535 42.9664 60.9025 43.5154C61.4516 44.0645 61.76 44.8091 61.76 45.5856H61.7334Z" fill="#E4B9A3"/>
<path d="M61.8235 46.6023C61.401 47.1541 60.7915 47.5326 60.1096 47.6669C59.6592 47.7874 59.1968 47.857 58.7309 47.8745C58.4775 47.8911 58.2232 47.8911 57.9698 47.8745C56.1653 47.6828 55.6543 46.5171 55.6543 46.5171C56.3443 45.974 57.1054 45.5281 57.9165 45.1917H58.2785L59.7849 45.2928L60.3597 45.3301L61.8235 46.6023Z" fill="white"/>
<path d="M55.6543 46.4798C56.4451 45.6027 57.5228 45.0365 58.6937 44.8829C59.264 44.8188 59.8415 44.8809 60.3852 45.0648C60.9288 45.2488 61.4254 45.5502 61.8395 45.9475C62.2718 45.9945 62.709 45.9693 63.133 45.873C62.7435 46.187 62.2996 46.427 61.8235 46.5809C61.8235 46.5809 60.4289 45.346 58.8693 45.362C57.7074 45.3909 56.5835 45.7817 55.6543 46.4798Z" fill="#89434A"/>
<path d="M60.5145 46.6022C60.5214 46.9959 60.3765 47.3771 60.11 47.6668C59.6596 47.7873 59.1972 47.8569 58.7313 47.8744C58.4779 47.8911 58.2236 47.8911 57.9702 47.8744C57.782 47.7284 57.6299 47.5411 57.5256 47.327C57.4213 47.1129 57.3676 46.8777 57.3687 46.6395C57.3715 46.3403 57.4584 46.048 57.6193 45.7957C57.7802 45.5435 58.0088 45.3416 58.2789 45.2129C58.4872 45.116 58.7145 45.0669 58.9443 45.0692C59.3586 45.0761 59.754 45.2437 60.047 45.5367C60.34 45.8297 60.5077 46.2252 60.5145 46.6395V46.6022Z" fill="#89434A"/>
<path d="M39.0151 45.5856C39.0151 47.1824 40.612 46.3733 42.2089 46.3733C43.8058 46.3733 44.8704 47.2037 44.8704 45.5856C44.8704 44.8091 44.5619 44.0645 44.0129 43.5154C43.4638 42.9664 42.7192 42.658 41.9427 42.658C41.1663 42.658 40.4216 42.9664 39.8726 43.5154C39.3236 44.0645 39.0151 44.8091 39.0151 45.5856Z" fill="#E4B9A3"/>
<path d="M38.9297 46.6023C39.3489 47.1552 39.9573 47.5342 40.6384 47.6669C41.0904 47.7878 41.5547 47.8574 42.0223 47.8745C42.274 47.8911 42.5265 47.8911 42.7782 47.8745C44.5827 47.6828 45.0936 46.5171 45.0936 46.5171C44.4037 45.974 43.6425 45.5281 42.8314 45.1917H42.4694L40.963 45.2928L40.3935 45.3301L38.9297 46.6023Z" fill="white"/>
<path d="M45.0935 46.4798C44.3027 45.6027 43.225 45.0365 42.0541 44.8829C41.4837 44.8188 40.9063 44.8809 40.3626 45.0648C39.8189 45.2488 39.3224 45.5502 38.9083 45.9475C38.4777 45.9945 38.0424 45.9693 37.6201 45.873C38.0087 46.1884 38.4528 46.4286 38.9295 46.5809C38.9295 46.5809 40.3242 45.346 41.8785 45.362C43.0404 45.3909 44.1643 45.7817 45.0935 46.4798Z" fill="#89434A"/>
<path d="M40.2337 46.6022C40.2295 46.9954 40.374 47.3756 40.6382 47.6668C41.0903 47.7877 41.5545 47.8573 42.0222 47.8744C42.2739 47.891 42.5264 47.891 42.7781 47.8744C42.9662 47.7284 43.1183 47.5411 43.2226 47.327C43.3269 47.1129 43.3806 46.8776 43.3795 46.6395C43.3767 46.3403 43.2899 46.048 43.1289 45.7957C42.968 45.5435 42.7394 45.3416 42.4693 45.2129C42.2629 45.116 42.0373 45.0669 41.8093 45.0692C41.3903 45.0692 40.9882 45.2338 40.6894 45.5275C40.3907 45.8212 40.2194 46.2206 40.2124 46.6395L40.2337 46.6022Z" fill="#89434A"/>
<path d="M53.2006 54.7943H48.9849L47.2603 52.9419L49.3522 51.1108L50.3316 42.9401L49.7993 51.3557L47.9469 52.9525L49.1818 54.2886H52.86L53.0569 53.2985C53.0801 53.1841 53.1269 53.0757 53.1944 52.9803C53.2618 52.8849 53.3483 52.8046 53.4484 52.7446C53.5486 52.6845 53.6602 52.6459 53.7761 52.6313C53.8919 52.6167 54.0096 52.6264 54.1215 52.6598L53.2006 54.7943Z" fill="#E4B9A3"/>
<path d="M64.1603 42.131C59.2632 38.5859 54.3715 42.0937 54.3235 42.131L54.0308 41.7318C60.6152 37.8141 64.1603 42.131 64.1603 42.131Z" fill="#89434A"/>
<path d="M36.6143 42.131C41.5113 38.5859 46.4084 42.0937 46.4563 42.131L46.7491 41.7318C40.1327 37.8141 36.6143 42.131 36.6143 42.131Z" fill="#89434A"/>
<path d="M53.1474 18.0128C54.4006 17.3087 55.8139 16.9388 57.2514 16.9388C58.6888 16.9388 60.1021 17.3087 61.3553 18.0128C65.752 20.44 66.098 22.5213 67.7162 26.455C69.0693 29.931 71.3483 32.9702 74.306 35.2431C74.9001 35.6884 75.3938 36.2538 75.755 36.9024C76.1162 37.5511 76.3369 38.2685 76.4026 39.008C76.4684 39.7475 76.3778 40.4926 76.1367 41.1948C75.8956 41.897 75.5094 42.5406 75.0033 43.0838C73.268 44.9308 68.5253 45.2768 65.5178 43.0838C62.5104 40.8907 57.3099 30.5962 55.8088 28.7438C55.5704 28.4196 55.2503 28.1644 54.8812 28.0041C54.512 27.8438 54.107 27.7842 53.7073 27.8312C53.3076 27.8783 52.9276 28.0303 52.6058 28.272C52.2839 28.5136 52.0318 28.8362 51.8752 29.2069C51.8752 29.2069 51.1832 26.7797 48.8677 27.3545C46.5523 27.9294 42.3951 39.033 39.3876 40.6618C36.3802 42.2907 31.7545 42.626 28.2893 40.5447C24.8241 38.4635 27.7091 30.6015 31.6427 26.0877C35.5764 21.5738 45.0512 11.9979 53.1474 18.0128Z" fill="#89434A"/>
<path d="M56.8093 58.2541C56.4287 58.3498 56.0431 58.4245 55.6542 58.4777C54.7894 58.6127 53.9103 58.6306 53.0407 58.5309C51.4875 58.2807 49.9043 58.2807 48.3512 58.5309C47.4815 58.6306 46.6025 58.6127 45.7376 58.4777C45.3488 58.4245 44.9631 58.3498 44.5825 58.2541C45.365 58.4351 45.6471 58.2541 47.5314 57.8283C49.6088 57.3066 51.783 57.3066 53.8604 57.8283C55.7341 58.2488 56.0268 58.4351 56.8093 58.2541Z" fill="#EBBAB1"/>
<path d="M53.7806 59.9095V59.8403L53.7646 59.7764L53.7966 59.7711V59.9042L53.7806 59.9095Z" fill="#231F20"/>
<path d="M56.8094 58.254C56.7049 58.9572 56.4605 59.6323 56.0908 60.2395C55.1647 61.9056 53.6263 63.199 50.6987 63.4332C47.7658 63.1884 46.2275 61.8949 45.3013 60.2395C44.9372 59.6311 44.6983 58.956 44.5986 58.254C44.5986 58.254 44.7264 58.8396 45.9453 60.0691C46.0039 60.1171 46.0624 60.1756 46.121 60.2342C47.5369 61.6234 50.7147 61.8736 50.7147 61.8736C50.7147 61.8736 53.9084 61.6234 55.303 60.2342L55.4787 60.0691C56.687 58.8396 56.8094 58.254 56.8094 58.254Z" fill="#F08F80"/>
<path d="M56.8092 58.254C56.8092 58.254 56.6868 58.8396 55.4625 60.0691C55.4277 59.8524 55.4064 59.6338 55.3986 59.4144C54.8853 59.6187 54.3491 59.7599 53.8018 59.8349C55.1697 59.4357 55.3986 59.1642 55.3986 59.1642L55.6701 58.4776C56.0536 58.4238 56.4339 58.3492 56.8092 58.254Z" fill="#89434A"/>
<path d="M47.5958 59.8349C47.0487 59.759 46.5126 59.6178 45.999 59.4144C45.9944 59.634 45.9731 59.8529 45.9351 60.0691C44.7161 58.8396 44.5884 58.254 44.5884 58.254C44.969 58.3498 45.3546 58.4244 45.7435 58.4776L46.0149 59.1642C46.0149 59.1642 46.2279 59.4357 47.5958 59.8349Z" fill="#89434A"/>
<path d="M55.3988 59.4145C55.4065 59.6339 55.4279 59.8525 55.4626 60.0692L55.287 60.2343C53.8711 61.6235 50.6986 61.8737 50.6986 61.8737C50.6986 61.8737 47.5049 61.6235 46.1049 60.2343C46.0464 60.1757 45.9878 60.1172 45.9293 60.0692C45.9673 59.853 45.9886 59.6341 45.9932 59.4145C46.5068 59.6179 47.0429 59.7591 47.59 59.835C46.222 59.4358 45.9932 59.1643 45.9932 59.1643L45.7217 58.4777C46.5865 58.6127 47.4656 58.6306 48.3353 58.5309C49.8862 58.2541 51.4738 58.2541 53.0247 58.5309C53.8944 58.6306 54.7734 58.6127 55.6383 58.4777L55.3668 59.1643C55.3668 59.1643 55.1486 59.4358 53.7699 59.835C54.3281 59.7626 54.8752 59.6213 55.3988 59.4145Z" fill="white"/>
<path d="M47.6115 59.9095L47.5796 59.9042L47.5902 59.7711L47.6222 59.7764L47.6115 59.9095Z" fill="#231F20"/>
<path d="M63.4848 9.9645C59.4926 2.79984 54.324 2.15045 50.5447 2.15045C46.7655 2.15045 41.5916 2.79984 37.5994 9.9645C36.1273 12.642 35.116 15.5481 34.6079 18.561C42.06 22.0422 50.5447 21.3609 50.5447 21.3609C50.5447 21.3609 59.0614 22.0422 66.4763 18.561C65.9731 15.5468 64.9616 12.6399 63.4848 9.9645Z" fill="#FDD983"/>
<path d="M66.4757 18.5611C59.0236 22.0423 50.5442 21.361 50.5442 21.361C50.5442 21.361 42.0275 22.0423 34.6074 18.5611C34.3729 19.9313 34.2448 21.3177 34.2241 22.7077C34.2241 23.5593 34.2667 24.0437 34.2667 24.0437C34.2667 24.0437 38.8231 27.7698 50.5442 27.2375C62.2546 27.807 66.8217 24.0437 66.8217 24.0437C66.8217 24.0437 66.8643 23.5593 66.859 22.7077C66.841 21.3175 66.7128 19.931 66.4757 18.5611Z" fill="#D76968"/>
<path d="M66.8592 22.7075C66.8592 23.5592 66.8219 24.0436 66.8219 24.0436C66.8219 24.0436 62.2655 27.7696 50.5444 27.2373C38.834 27.8069 34.2669 24.0436 34.2669 24.0436C34.2669 24.0436 34.2243 23.5592 34.2243 22.7075L11.9639 25.369C11.9639 25.369 14.7903 36.1639 23.0994 39.512C31.4085 42.8601 34.9163 41.6412 39.148 40.0815C43.3798 38.5219 48.2449 37.4786 50.5444 37.4786C52.8439 37.4786 57.7038 38.5432 61.9355 40.0815C66.1672 41.6199 69.6697 42.8495 77.9894 39.512C86.3091 36.1745 89.125 25.3477 89.125 25.3477L66.8592 22.7075Z" fill="#FDD983"/>
</svg>
